solid OpenSCAD_Model
  facet normal 1 -0 0
    outer loop
      vertex 30 -3 3
      vertex 30 3 0
      vertex 30 3 3
    endloop
  endfacet
  facet normal 1 0 0
    outer loop
      vertex 30 3 0
      vertex 30 -3 3
      vertex 30 -3 0
    endloop
  endfacet
  facet normal -1 0 0
    outer loop
      vertex -30 -3 0
      vertex -30 3 3
      vertex -30 3 0
    endloop
  endfacet
  facet normal -1 -0 0
    outer loop
      vertex -30 3 3
      vertex -30 -3 0
      vertex -30 -3 3
    endloop
  endfacet
  facet normal -0.119145 0.992877 0
    outer loop
      vertex -5 6 0
      vertex -30 3 3
      vertex -5 6 3
    endloop
  endfacet
  facet normal -0.119145 0.992877 0
    outer loop
      vertex -30 3 3
      vertex -5 6 0
      vertex -30 3 0
    endloop
  endfacet
  facet normal 0 -1 0
    outer loop
      vertex -5 -3 20
      vertex 0 -3 17
      vertex 5 -3 20
    endloop
  endfacet
  facet normal 0 -1 0
    outer loop
      vertex -5 -3 20
      vertex -1.06744 -3 16.9665
      vertex 0 -3 17
    endloop
  endfacet
  facet normal 0 -1 0
    outer loop
      vertex -5 -3 20
      vertex -2.13066 -3 16.8659
      vertex -1.06744 -3 16.9665
    endloop
  endfacet
  facet normal 0 -1 0
    outer loop
      vertex -5 -3 20
      vertex -3.18548 -3 16.6989
      vertex -2.13066 -3 16.8659
    endloop
  endfacet
  facet normal 0 -1 0
    outer loop
      vertex -5 -3 20
      vertex -4.22773 -3 16.4659
      vertex -3.18548 -3 16.6989
    endloop
  endfacet
  facet normal -0 -1 0
    outer loop
      vertex -4.22773 -3 16.4659
      vertex -5 -3 20
      vertex -5 -3 16.2415
    endloop
  endfacet
  facet normal 0 -1 0
    outer loop
      vertex 1.06744 -3 16.9665
      vertex 5 -3 20
      vertex 0 -3 17
    endloop
  endfacet
  facet normal 0 -1 0
    outer loop
      vertex 2.13066 -3 16.8659
      vertex 5 -3 20
      vertex 1.06744 -3 16.9665
    endloop
  endfacet
  facet normal 0 -1 0
    outer loop
      vertex 3.18548 -3 16.6989
      vertex 5 -3 20
      vertex 2.13066 -3 16.8659
    endloop
  endfacet
  facet normal 0 -1 0
    outer loop
      vertex 4.22773 -3 16.4659
      vertex 5 -3 20
      vertex 3.18548 -3 16.6989
    endloop
  endfacet
  facet normal 0 -1 -0
    outer loop
      vertex 5 -3 20
      vertex 4.22773 -3 16.4659
      vertex 5 -3 16.2415
    endloop
  endfacet
  facet normal 0 -1 0
    outer loop
      vertex 16.8659 -3 2.13066
      vertex 30 -3 3
      vertex 16.7283 -3 3
    endloop
  endfacet
  facet normal 0 -1 0
    outer loop
      vertex 16.9665 -3 1.06744
      vertex 30 -3 3
      vertex 16.8659 -3 2.13066
    endloop
  endfacet
  facet normal 0 -1 0
    outer loop
      vertex 30 -3 0
      vertex 16.9665 -3 1.06744
      vertex 17 -3 0
    endloop
  endfacet
  facet normal 0 -1 0
    outer loop
      vertex 16.9665 -3 1.06744
      vertex 30 -3 0
      vertex 30 -3 3
    endloop
  endfacet
  facet normal 0 -1 0
    outer loop
      vertex -30 -3 3
      vertex -16.8659 -3 2.13066
      vertex -16.7283 -3 3
    endloop
  endfacet
  facet normal 0 -1 0
    outer loop
      vertex -30 -3 3
      vertex -16.9665 -3 1.06744
      vertex -16.8659 -3 2.13066
    endloop
  endfacet
  facet normal 0 -1 0
    outer loop
      vertex -30 -3 0
      vertex -16.9665 -3 1.06744
      vertex -30 -3 3
    endloop
  endfacet
  facet normal 0 -1 0
    outer loop
      vertex -16.9665 -3 1.06744
      vertex -30 -3 0
      vertex -17 -3 0
    endloop
  endfacet
  facet normal 0 0 -1
    outer loop
      vertex -17 -3 0
      vertex -30 -3 0
      vertex -17 -2.25 0
    endloop
  endfacet
  facet normal 0 0 -1
    outer loop
      vertex 17 -2.25 0
      vertex 30 -3 0
      vertex 17 -3 0
    endloop
  endfacet
  facet normal 0 0 -1
    outer loop
      vertex 30 -3 0
      vertex 17 -2.25 0
      vertex 30 3 0
    endloop
  endfacet
  facet normal 0 0 -1
    outer loop
      vertex 5 6 0
      vertex 17 -2.25 0
      vertex 16.9329 -2.25 0
    endloop
  endfacet
  facet normal 0 0 -1
    outer loop
      vertex 5 6 0
      vertex 16.9329 -2.25 0
      vertex 16.8659 -2.25 0
    endloop
  endfacet
  facet normal 0 0 -1
    outer loop
      vertex 5 6 0
      vertex 16.8659 -2.25 0
      vertex 16.799 -2.25 0
    endloop
  endfacet
  facet normal 0 0 -1
    outer loop
      vertex 5 6 0
      vertex 16.799 -2.25 0
      vertex 16.7319 -2.25 0
    endloop
  endfacet
  facet normal 0 0 -1
    outer loop
      vertex 5 6 0
      vertex 16.7319 -2.25 0
      vertex 16.6645 -2.25 0
    endloop
  endfacet
  facet normal 0 0 -1
    outer loop
      vertex 5 6 0
      vertex 16.6645 -2.25 0
      vertex 16.5968 -2.25 0
    endloop
  endfacet
  facet normal 0 0 -1
    outer loop
      vertex 5 6 0
      vertex 16.5968 -2.25 0
      vertex 16.5285 -2.25 0
    endloop
  endfacet
  facet normal 0 0 -1
    outer loop
      vertex 5 6 0
      vertex 16.5285 -2.25 0
      vertex 16.4595 -2.25 0
    endloop
  endfacet
  facet normal 0 0 -1
    outer loop
      vertex 5 6 0
      vertex 16.4595 -2.25 0
      vertex 16.3897 -2.25 0
    endloop
  endfacet
  facet normal 0 0 -1
    outer loop
      vertex 5 6 0
      vertex 16.3897 -2.25 0
      vertex 16.3189 -2.25 0
    endloop
  endfacet
  facet normal 0 0 -1
    outer loop
      vertex 5 6 0
      vertex 16.3189 -2.25 0
      vertex 16.2469 -2.25 0
    endloop
  endfacet
  facet normal 0 0 -1
    outer loop
      vertex 5 6 0
      vertex 16.2469 -2.25 0
      vertex 16.1737 -2.25 0
    endloop
  endfacet
  facet normal 0 0 -1
    outer loop
      vertex 5 6 0
      vertex 16.1737 -2.25 0
      vertex 16.0989 -2.25 0
    endloop
  endfacet
  facet normal 0 0 -1
    outer loop
      vertex 5 6 0
      vertex 16.0989 -2.25 0
      vertex 16.0224 -2.25 0
    endloop
  endfacet
  facet normal 0 0 -1
    outer loop
      vertex 5 6 0
      vertex 16.0224 -2.25 0
      vertex 15.9439 -2.25 0
    endloop
  endfacet
  facet normal 0 0 -1
    outer loop
      vertex 5 6 0
      vertex 15.9439 -2.25 0
      vertex 15.8633 -2.25 0
    endloop
  endfacet
  facet normal 0 0 -1
    outer loop
      vertex 5 6 0
      vertex 15.8633 -2.25 0
      vertex 15.7803 -2.25 0
    endloop
  endfacet
  facet normal 0 0 -1
    outer loop
      vertex 5 6 0
      vertex 15.7803 -2.25 0
      vertex 15.6946 -2.25 0
    endloop
  endfacet
  facet normal 0 0 -1
    outer loop
      vertex 5 6 0
      vertex 15.6946 -2.25 0
      vertex 15.6059 -2.25 0
    endloop
  endfacet
  facet normal 0 0 -1
    outer loop
      vertex 5 6 0
      vertex 15.6059 -2.25 0
      vertex 15.5138 -2.25 0
    endloop
  endfacet
  facet normal 0 0 -1
    outer loop
      vertex 5 6 0
      vertex 15.5138 -2.25 0
      vertex 15.418 -2.25 0
    endloop
  endfacet
  facet normal 0 0 -1
    outer loop
      vertex 5 6 0
      vertex 15.418 -2.25 0
      vertex 15.3179 -2.25 0
    endloop
  endfacet
  facet normal 0 0 -1
    outer loop
      vertex 5 6 0
      vertex 15.3179 -2.25 0
      vertex 15.2132 -2.25 0
    endloop
  endfacet
  facet normal 0 0 -1
    outer loop
      vertex 5 6 0
      vertex 15.2132 -2.25 0
      vertex 15.1033 -2.25 0
    endloop
  endfacet
  facet normal 0 0 -1
    outer loop
      vertex 5 6 0
      vertex 15.1033 -2.25 0
      vertex 14.9875 -2.25 0
    endloop
  endfacet
  facet normal 0 0 -1
    outer loop
      vertex 17 -2.25 0
      vertex 5 6 0
      vertex 30 3 0
    endloop
  endfacet
  facet normal 0 0 -1
    outer loop
      vertex 14.9875 -2.25 0
      vertex -5 6 0
      vertex 5 6 0
    endloop
  endfacet
  facet normal 0 0 -1
    outer loop
      vertex -14.9875 -2.25 0
      vertex -5 6 0
      vertex 14.9875 -2.25 0
    endloop
  endfacet
  facet normal 0 0 -1
    outer loop
      vertex -15.1033 -2.25 0
      vertex -5 6 0
      vertex -14.9875 -2.25 0
    endloop
  endfacet
  facet normal 0 0 -1
    outer loop
      vertex -15.2132 -2.25 0
      vertex -5 6 0
      vertex -15.1033 -2.25 0
    endloop
  endfacet
  facet normal 0 0 -1
    outer loop
      vertex -15.3179 -2.25 0
      vertex -5 6 0
      vertex -15.2132 -2.25 0
    endloop
  endfacet
  facet normal 0 0 -1
    outer loop
      vertex -15.418 -2.25 0
      vertex -5 6 0
      vertex -15.3179 -2.25 0
    endloop
  endfacet
  facet normal 0 0 -1
    outer loop
      vertex -15.5138 -2.25 0
      vertex -5 6 0
      vertex -15.418 -2.25 0
    endloop
  endfacet
  facet normal 0 0 -1
    outer loop
      vertex -15.6059 -2.25 0
      vertex -5 6 0
      vertex -15.5138 -2.25 0
    endloop
  endfacet
  facet normal 0 0 -1
    outer loop
      vertex -15.6946 -2.25 0
      vertex -5 6 0
      vertex -15.6059 -2.25 0
    endloop
  endfacet
  facet normal 0 0 -1
    outer loop
      vertex -15.7803 -2.25 0
      vertex -5 6 0
      vertex -15.6946 -2.25 0
    endloop
  endfacet
  facet normal 0 0 -1
    outer loop
      vertex -15.8633 -2.25 0
      vertex -5 6 0
      vertex -15.7803 -2.25 0
    endloop
  endfacet
  facet normal 0 0 -1
    outer loop
      vertex -15.9439 -2.25 0
      vertex -5 6 0
      vertex -15.8633 -2.25 0
    endloop
  endfacet
  facet normal 0 0 -1
    outer loop
      vertex -16.0224 -2.25 0
      vertex -5 6 0
      vertex -15.9439 -2.25 0
    endloop
  endfacet
  facet normal 0 0 -1
    outer loop
      vertex -16.0989 -2.25 0
      vertex -5 6 0
      vertex -16.0224 -2.25 0
    endloop
  endfacet
  facet normal 0 0 -1
    outer loop
      vertex -16.1737 -2.25 0
      vertex -5 6 0
      vertex -16.0989 -2.25 0
    endloop
  endfacet
  facet normal 0 0 -1
    outer loop
      vertex -16.2469 -2.25 0
      vertex -5 6 0
      vertex -16.1737 -2.25 0
    endloop
  endfacet
  facet normal 0 0 -1
    outer loop
      vertex -16.3189 -2.25 0
      vertex -5 6 0
      vertex -16.2469 -2.25 0
    endloop
  endfacet
  facet normal 0 0 -1
    outer loop
      vertex -16.3897 -2.25 0
      vertex -5 6 0
      vertex -16.3189 -2.25 0
    endloop
  endfacet
  facet normal 0 0 -1
    outer loop
      vertex -16.4595 -2.25 0
      vertex -5 6 0
      vertex -16.3897 -2.25 0
    endloop
  endfacet
  facet normal 0 0 -1
    outer loop
      vertex -16.5285 -2.25 0
      vertex -5 6 0
      vertex -16.4595 -2.25 0
    endloop
  endfacet
  facet normal 0 0 -1
    outer loop
      vertex -16.5968 -2.25 0
      vertex -5 6 0
      vertex -16.5285 -2.25 0
    endloop
  endfacet
  facet normal 0 0 -1
    outer loop
      vertex -16.6645 -2.25 0
      vertex -5 6 0
      vertex -16.5968 -2.25 0
    endloop
  endfacet
  facet normal 0 0 -1
    outer loop
      vertex -16.7319 -2.25 0
      vertex -5 6 0
      vertex -16.6645 -2.25 0
    endloop
  endfacet
  facet normal 0 0 -1
    outer loop
      vertex -16.799 -2.25 0
      vertex -5 6 0
      vertex -16.7319 -2.25 0
    endloop
  endfacet
  facet normal 0 0 -1
    outer loop
      vertex -16.8659 -2.25 0
      vertex -5 6 0
      vertex -16.799 -2.25 0
    endloop
  endfacet
  facet normal 0 0 -1
    outer loop
      vertex -16.9329 -2.25 0
      vertex -5 6 0
      vertex -16.8659 -2.25 0
    endloop
  endfacet
  facet normal 0 0 -1
    outer loop
      vertex -17 -2.25 0
      vertex -5 6 0
      vertex -16.9329 -2.25 0
    endloop
  endfacet
  facet normal 0 0 -1
    outer loop
      vertex -30 3 0
      vertex -17 -2.25 0
      vertex -30 -3 0
    endloop
  endfacet
  facet normal 0 0 -1
    outer loop
      vertex -17 -2.25 0
      vertex -30 3 0
      vertex -5 6 0
    endloop
  endfacet
  facet normal 0.119145 0.992877 -0
    outer loop
      vertex 30 3 0
      vertex 5 6 3
      vertex 30 3 3
    endloop
  endfacet
  facet normal 0.119145 0.992877 0
    outer loop
      vertex 5 6 3
      vertex 30 3 0
      vertex 5 6 0
    endloop
  endfacet
  facet normal 0 0 1
    outer loop
      vertex -12.3427 -2.25 3
      vertex -5 3 3
      vertex -5 6 3
    endloop
  endfacet
  facet normal 0 0 1
    outer loop
      vertex -5 3 3
      vertex -12.3427 -2.25 3
      vertex -5 0 3
    endloop
  endfacet
  facet normal 0 0 1
    outer loop
      vertex -5 0 3
      vertex -12.3427 -2.25 3
      vertex -5 -2.25 3
    endloop
  endfacet
  facet normal 0 0 1
    outer loop
      vertex -5 6 3
      vertex -12.6215 -2.25 3
      vertex -12.3427 -2.25 3
    endloop
  endfacet
  facet normal 0 0 1
    outer loop
      vertex -5 6 3
      vertex -12.8862 -2.25 3
      vertex -12.6215 -2.25 3
    endloop
  endfacet
  facet normal 0 0 1
    outer loop
      vertex -5 6 3
      vertex -13.1383 -2.25 3
      vertex -12.8862 -2.25 3
    endloop
  endfacet
  facet normal 0 0 1
    outer loop
      vertex -5 6 3
      vertex -13.3792 -2.25 3
      vertex -13.1383 -2.25 3
    endloop
  endfacet
  facet normal 0 0 1
    outer loop
      vertex -5 6 3
      vertex -13.6099 -2.25 3
      vertex -13.3792 -2.25 3
    endloop
  endfacet
  facet normal 0 0 1
    outer loop
      vertex -5 6 3
      vertex -13.8317 -2.25 3
      vertex -13.6099 -2.25 3
    endloop
  endfacet
  facet normal 0 0 1
    outer loop
      vertex -5 6 3
      vertex -14.0453 -2.25 3
      vertex -13.8317 -2.25 3
    endloop
  endfacet
  facet normal 0 0 1
    outer loop
      vertex -5 6 3
      vertex -14.2517 -2.25 3
      vertex -14.0453 -2.25 3
    endloop
  endfacet
  facet normal 0 0 1
    outer loop
      vertex -5 6 3
      vertex -14.4516 -2.25 3
      vertex -14.2517 -2.25 3
    endloop
  endfacet
  facet normal 0 0 1
    outer loop
      vertex -5 6 3
      vertex -14.6457 -2.25 3
      vertex -14.4516 -2.25 3
    endloop
  endfacet
  facet normal 0 0 1
    outer loop
      vertex -5 6 3
      vertex -14.8346 -2.25 3
      vertex -14.6457 -2.25 3
    endloop
  endfacet
  facet normal 0 0 1
    outer loop
      vertex -5 6 3
      vertex -15.0188 -2.25 3
      vertex -14.8346 -2.25 3
    endloop
  endfacet
  facet normal 0 0 1
    outer loop
      vertex -5 6 3
      vertex -15.1989 -2.25 3
      vertex -15.0188 -2.25 3
    endloop
  endfacet
  facet normal 0 0 1
    outer loop
      vertex -5 6 3
      vertex -15.3754 -2.25 3
      vertex -15.1989 -2.25 3
    endloop
  endfacet
  facet normal 0 0 1
    outer loop
      vertex -5 6 3
      vertex -15.5486 -2.25 3
      vertex -15.3754 -2.25 3
    endloop
  endfacet
  facet normal 0 0 1
    outer loop
      vertex -5 6 3
      vertex -15.7191 -2.25 3
      vertex -15.5486 -2.25 3
    endloop
  endfacet
  facet normal 0 0 1
    outer loop
      vertex -5 6 3
      vertex -15.8872 -2.25 3
      vertex -15.7191 -2.25 3
    endloop
  endfacet
  facet normal 0 0 1
    outer loop
      vertex -5 6 3
      vertex -16.0533 -2.25 3
      vertex -15.8872 -2.25 3
    endloop
  endfacet
  facet normal 0 0 1
    outer loop
      vertex -5 6 3
      vertex -16.2178 -2.25 3
      vertex -16.0533 -2.25 3
    endloop
  endfacet
  facet normal 0 0 1
    outer loop
      vertex -5 6 3
      vertex -16.381 -2.25 3
      vertex -16.2178 -2.25 3
    endloop
  endfacet
  facet normal 0 0 1
    outer loop
      vertex -5 6 3
      vertex -16.5432 -2.25 3
      vertex -16.381 -2.25 3
    endloop
  endfacet
  facet normal 0 0 1
    outer loop
      vertex -5 6 3
      vertex -16.7047 -2.25 3
      vertex -16.5432 -2.25 3
    endloop
  endfacet
  facet normal 0 0 1
    outer loop
      vertex -5 6 3
      vertex -16.7283 -2.25 3
      vertex -16.7047 -2.25 3
    endloop
  endfacet
  facet normal -0 0 1
    outer loop
      vertex -30 3 3
      vertex -16.7283 -2.25 3
      vertex -5 6 3
    endloop
  endfacet
  facet normal 0 0 1
    outer loop
      vertex -30 -3 3
      vertex -16.7283 -2.25 3
      vertex -30 3 3
    endloop
  endfacet
  facet normal 0 0 1
    outer loop
      vertex -16.7283 -2.25 3
      vertex -30 -3 3
      vertex -16.7283 -3 3
    endloop
  endfacet
  facet normal -0 0 1
    outer loop
      vertex -5 3 3
      vertex 5 0 3
      vertex 5 3 3
    endloop
  endfacet
  facet normal 0 0 1
    outer loop
      vertex 5 0 3
      vertex -5 3 3
      vertex -5 0 3
    endloop
  endfacet
  facet normal 0 0 1
    outer loop
      vertex 30 3 3
      vertex 16.7283 -2.25 3
      vertex 30 -3 3
    endloop
  endfacet
  facet normal 0 0 1
    outer loop
      vertex 5 6 3
      vertex 16.7283 -2.25 3
      vertex 30 3 3
    endloop
  endfacet
  facet normal 0 0 1
    outer loop
      vertex 16.7283 -2.25 3
      vertex 5 6 3
      vertex 16.7047 -2.25 3
    endloop
  endfacet
  facet normal 0 0 1
    outer loop
      vertex 16.7047 -2.25 3
      vertex 5 6 3
      vertex 16.5432 -2.25 3
    endloop
  endfacet
  facet normal 0 0 1
    outer loop
      vertex 16.5432 -2.25 3
      vertex 5 6 3
      vertex 16.381 -2.25 3
    endloop
  endfacet
  facet normal 0 0 1
    outer loop
      vertex 16.381 -2.25 3
      vertex 5 6 3
      vertex 16.2178 -2.25 3
    endloop
  endfacet
  facet normal 0 0 1
    outer loop
      vertex 16.2178 -2.25 3
      vertex 5 6 3
      vertex 16.0533 -2.25 3
    endloop
  endfacet
  facet normal 0 0 1
    outer loop
      vertex 16.0533 -2.25 3
      vertex 5 6 3
      vertex 15.8872 -2.25 3
    endloop
  endfacet
  facet normal 0 0 1
    outer loop
      vertex 15.8872 -2.25 3
      vertex 5 6 3
      vertex 15.7191 -2.25 3
    endloop
  endfacet
  facet normal 0 0 1
    outer loop
      vertex 15.7191 -2.25 3
      vertex 5 6 3
      vertex 15.5486 -2.25 3
    endloop
  endfacet
  facet normal 0 0 1
    outer loop
      vertex 15.5486 -2.25 3
      vertex 5 6 3
      vertex 15.3754 -2.25 3
    endloop
  endfacet
  facet normal 0 0 1
    outer loop
      vertex 15.3754 -2.25 3
      vertex 5 6 3
      vertex 15.1989 -2.25 3
    endloop
  endfacet
  facet normal 0 0 1
    outer loop
      vertex 15.1989 -2.25 3
      vertex 5 6 3
      vertex 15.0188 -2.25 3
    endloop
  endfacet
  facet normal 0 0 1
    outer loop
      vertex 15.0188 -2.25 3
      vertex 5 6 3
      vertex 14.8346 -2.25 3
    endloop
  endfacet
  facet normal 0 0 1
    outer loop
      vertex 14.8346 -2.25 3
      vertex 5 6 3
      vertex 14.6457 -2.25 3
    endloop
  endfacet
  facet normal 0 0 1
    outer loop
      vertex 14.6457 -2.25 3
      vertex 5 6 3
      vertex 14.4516 -2.25 3
    endloop
  endfacet
  facet normal 0 0 1
    outer loop
      vertex 14.4516 -2.25 3
      vertex 5 6 3
      vertex 14.2517 -2.25 3
    endloop
  endfacet
  facet normal 0 0 1
    outer loop
      vertex 14.2517 -2.25 3
      vertex 5 6 3
      vertex 14.0453 -2.25 3
    endloop
  endfacet
  facet normal 0 0 1
    outer loop
      vertex 14.0453 -2.25 3
      vertex 5 6 3
      vertex 13.8317 -2.25 3
    endloop
  endfacet
  facet normal 0 0 1
    outer loop
      vertex 13.8317 -2.25 3
      vertex 5 6 3
      vertex 13.6099 -2.25 3
    endloop
  endfacet
  facet normal 0 0 1
    outer loop
      vertex 13.6099 -2.25 3
      vertex 5 6 3
      vertex 13.3792 -2.25 3
    endloop
  endfacet
  facet normal 0 0 1
    outer loop
      vertex 13.3792 -2.25 3
      vertex 5 6 3
      vertex 13.1383 -2.25 3
    endloop
  endfacet
  facet normal 0 0 1
    outer loop
      vertex 13.1383 -2.25 3
      vertex 5 6 3
      vertex 12.8862 -2.25 3
    endloop
  endfacet
  facet normal 0 0 1
    outer loop
      vertex 12.8862 -2.25 3
      vertex 5 6 3
      vertex 12.6215 -2.25 3
    endloop
  endfacet
  facet normal 0 0 1
    outer loop
      vertex 12.6215 -2.25 3
      vertex 5 6 3
      vertex 12.3427 -2.25 3
    endloop
  endfacet
  facet normal -0 0 1
    outer loop
      vertex 5 3 3
      vertex 12.3427 -2.25 3
      vertex 5 6 3
    endloop
  endfacet
  facet normal -0 0 1
    outer loop
      vertex 5 0 3
      vertex 12.3427 -2.25 3
      vertex 5 3 3
    endloop
  endfacet
  facet normal 0 0 1
    outer loop
      vertex 12.3427 -2.25 3
      vertex 5 0 3
      vertex 5 -2.25 3
    endloop
  endfacet
  facet normal 0 0 1
    outer loop
      vertex 30 -3 3
      vertex 16.7283 -2.25 3
      vertex 16.7283 -3 3
    endloop
  endfacet
  facet normal 0 1 -0
    outer loop
      vertex 5 6 3
      vertex -5 6 7.5
      vertex 5 6 7.5
    endloop
  endfacet
  facet normal 0 1 0
    outer loop
      vertex 5 6 3
      vertex -5 6 3
      vertex -5 6 7.5
    endloop
  endfacet
  facet normal 0 1 -0
    outer loop
      vertex 5 6 0
      vertex -5 6 3
      vertex 5 6 3
    endloop
  endfacet
  facet normal 0 1 0
    outer loop
      vertex -5 6 3
      vertex 5 6 0
      vertex -5 6 0
    endloop
  endfacet
  facet normal 1 -0 0
    outer loop
      vertex 5 3 7.5
      vertex 5 6 3
      vertex 5 6 7.5
    endloop
  endfacet
  facet normal 1 0 0
    outer loop
      vertex 5 6 3
      vertex 5 3 7.5
      vertex 5 3 3
    endloop
  endfacet
  facet normal -1 0 0
    outer loop
      vertex -5 3 3
      vertex -5 6 7.5
      vertex -5 6 3
    endloop
  endfacet
  facet normal -1 -0 0
    outer loop
      vertex -5 6 7.5
      vertex -5 3 3
      vertex -5 3 7.5
    endloop
  endfacet
  facet normal 0 -1 0
    outer loop
      vertex -5 3 3
      vertex 5 3 7.5
      vertex -5 3 7.5
    endloop
  endfacet
  facet normal 0 -1 -0
    outer loop
      vertex 5 3 7.5
      vertex -5 3 3
      vertex 5 3 3
    endloop
  endfacet
  facet normal -0 0 1
    outer loop
      vertex -5 6 7.5
      vertex 5 3 7.5
      vertex 5 6 7.5
    endloop
  endfacet
  facet normal 0 0 1
    outer loop
      vertex 5 3 7.5
      vertex -5 6 7.5
      vertex -5 3 7.5
    endloop
  endfacet
  facet normal 1 -0 0
    outer loop
      vertex 5 -2.25 14.2014
      vertex 5 0 9
      vertex 5 0 20
    endloop
  endfacet
  facet normal 1 -0 0
    outer loop
      vertex 5 -2.25 12.2128
      vertex 5 0 9
      vertex 5 -2.25 13.1668
    endloop
  endfacet
  facet normal 1 0 -0
    outer loop
      vertex 5 -2.25 3
      vertex 5 0 6
      vertex 5 -2.25 11.3286
    endloop
  endfacet
  facet normal 1 0 0
    outer loop
      vertex 5 0 9
      vertex 5 -2.25 14.2014
      vertex 5 -2.25 13.1668
    endloop
  endfacet
  facet normal 1 0 0
    outer loop
      vertex 5 -2.25 15.3295
      vertex 5 0 20
      vertex 5 -2.25 16.2415
    endloop
  endfacet
  facet normal 1 -0 0
    outer loop
      vertex 5 -3 20
      vertex 5 -2.25 16.2415
      vertex 5 0 20
    endloop
  endfacet
  facet normal 1 0 0
    outer loop
      vertex 5 -2.25 16.2415
      vertex 5 -3 20
      vertex 5 -3 16.2415
    endloop
  endfacet
  facet normal 1 0 0
    outer loop
      vertex 5 0.499999 6
      vertex 5 0 9
      vertex 5 0 6
    endloop
  endfacet
  facet normal 1 -0 0
    outer loop
      vertex 5 -2.25 11.3286
      vertex 5 0 9
      vertex 5 -2.25 12.2128
    endloop
  endfacet
  facet normal 1 0 0
    outer loop
      vertex 5 0 9
      vertex 5 -2.25 11.3286
      vertex 5 0 6
    endloop
  endfacet
  facet normal 1 0 0
    outer loop
      vertex 5 0 6
      vertex 5 -2.25 3
      vertex 5 0 3
    endloop
  endfacet
  facet normal 1 0 0
    outer loop
      vertex 5 0 20
      vertex 5 -2.25 15.3295
      vertex 5 -2.25 14.2014
    endloop
  endfacet
  facet normal -1 0 0
    outer loop
      vertex -5 -2.25 3
      vertex -5 0 6
      vertex -5 0 3
    endloop
  endfacet
  facet normal -1 0 0
    outer loop
      vertex -5 -2.25 11.3286
      vertex -5 0 6
      vertex -5 -2.25 3
    endloop
  endfacet
  facet normal -1 0 0
    outer loop
      vertex -5 0 6
      vertex -5 -2.25 11.3286
      vertex -5 0 9
    endloop
  endfacet
  facet normal -1 0 0
    outer loop
      vertex -5 -2.25 12.2128
      vertex -5 0 9
      vertex -5 -2.25 11.3286
    endloop
  endfacet
  facet normal -1 0 0
    outer loop
      vertex -5 -2.25 13.1668
      vertex -5 0 9
      vertex -5 -2.25 12.2128
    endloop
  endfacet
  facet normal -1 0 0
    outer loop
      vertex -5 -2.25 14.2014
      vertex -5 0 9
      vertex -5 -2.25 13.1668
    endloop
  endfacet
  facet normal -1 0 0
    outer loop
      vertex -5 0 9
      vertex -5 -2.25 14.2014
      vertex -5 0 20
    endloop
  endfacet
  facet normal -1 0 0
    outer loop
      vertex -5 -2.25 15.3295
      vertex -5 0 20
      vertex -5 -2.25 14.2014
    endloop
  endfacet
  facet normal -1 0 0
    outer loop
      vertex -5 -2.25 16.2415
      vertex -5 0 20
      vertex -5 -2.25 15.3295
    endloop
  endfacet
  facet normal -1 0 0
    outer loop
      vertex -5 -3 20
      vertex -5 -2.25 16.2415
      vertex -5 -3 16.2415
    endloop
  endfacet
  facet normal -1 0 0
    outer loop
      vertex -5 -2.25 16.2415
      vertex -5 -3 20
      vertex -5 0 20
    endloop
  endfacet
  facet normal -1 0 0
    outer loop
      vertex -5 0.5 6
      vertex -5 0 6
      vertex -5 0 9
    endloop
  endfacet
  facet normal 0 1 -0
    outer loop
      vertex 5 0 3
      vertex -5 0 6
      vertex 5 0 6
    endloop
  endfacet
  facet normal 0 1 0
    outer loop
      vertex -5 0 6
      vertex 5 0 3
      vertex -5 0 3
    endloop
  endfacet
  facet normal 0 1 -0
    outer loop
      vertex 5 0 9
      vertex -5 0 20
      vertex 5 0 20
    endloop
  endfacet
  facet normal 0 1 0
    outer loop
      vertex -5 0 20
      vertex 5 0 9
      vertex -5 0 9
    endloop
  endfacet
  facet normal -0 0 1
    outer loop
      vertex -5 0 20
      vertex 5 -3 20
      vertex 5 0 20
    endloop
  endfacet
  facet normal 0 0 1
    outer loop
      vertex 5 -3 20
      vertex -5 0 20
      vertex -5 -3 20
    endloop
  endfacet
  facet normal 0 0 -1
    outer loop
      vertex -5 0 6
      vertex 5 0.499999 6
      vertex 5 0 6
    endloop
  endfacet
  facet normal -0 0 -1
    outer loop
      vertex 5 0.499999 6
      vertex -5 0 6
      vertex -5 0.5 6
    endloop
  endfacet
  facet normal 9.40699e-008 0.986394 0.164399
    outer loop
      vertex 5 0.499999 6
      vertex -5 0.5 6
      vertex 5 0 9
    endloop
  endfacet
  facet normal 0 0.986394 0.164399
    outer loop
      vertex -5 0.5 6
      vertex -5 0 9
      vertex 5 0 9
    endloop
  endfacet
  facet normal 0.0314116 0 -0.999507
    outer loop
      vertex -1.06744 -3 16.9665
      vertex 0 -2.25 17
      vertex 0 -3 17
    endloop
  endfacet
  facet normal 0.0314116 0 -0.999507
    outer loop
      vertex 0 -2.25 17
      vertex -1.06744 -3 16.9665
      vertex -1.06744 -2.25 16.9665
    endloop
  endfacet
  facet normal -3.55366e-006 -1 -1.11681e-007
    outer loop
      vertex 17 -2.25 0
      vertex 16.9665 -2.25 1.06744
      vertex 16.9329 -2.25 0
    endloop
  endfacet
  facet normal 0 -1 -7.94729e-008
    outer loop
      vertex 16.3189 -2.25 0
      vertex 15.7191 -2.25 3
      vertex 15.5486 -2.25 3
    endloop
  endfacet
  facet normal 0 -1 -7.94729e-008
    outer loop
      vertex 15.7191 -2.25 3
      vertex 16.3189 -2.25 0
      vertex 16.3897 -2.25 0
    endloop
  endfacet
  facet normal 1.61829e-009 -1 -5.14936e-008
    outer loop
      vertex -5 -2.25 12.2128
      vertex 0 -2.25 17
      vertex -1.06744 -2.25 16.9665
    endloop
  endfacet
  facet normal -4.76837e-008 -1 0
    outer loop
      vertex 0 -2.25 17
      vertex -5 -2.25 12.2128
      vertex -5 -2.25 11.3286
    endloop
  endfacet
  facet normal -0 -1 -7.94729e-008
    outer loop
      vertex -14.9875 -2.25 0
      vertex -12.6215 -2.25 3
      vertex -15.1033 -2.25 0
    endloop
  endfacet
  facet normal 0 -1 -7.94729e-008
    outer loop
      vertex -12.6215 -2.25 3
      vertex -14.9875 -2.25 0
      vertex -12.3427 -2.25 3
    endloop
  endfacet
  facet normal 0 -1 0
    outer loop
      vertex -16.0989 -2.25 0
      vertex -15.1989 -2.25 3
      vertex -16.1737 -2.25 0
    endloop
  endfacet
  facet normal 0 -1 -0
    outer loop
      vertex -15.1989 -2.25 3
      vertex -16.0989 -2.25 0
      vertex -15.0188 -2.25 3
    endloop
  endfacet
  facet normal 0 -1 -7.94729e-008
    outer loop
      vertex 16.5285 -2.25 0
      vertex 16.2178 -2.25 3
      vertex 16.0533 -2.25 3
    endloop
  endfacet
  facet normal 0 -1 -7.94729e-008
    outer loop
      vertex 16.2178 -2.25 3
      vertex 16.5285 -2.25 0
      vertex 16.5968 -2.25 0
    endloop
  endfacet
  facet normal 0 -1 -7.94729e-008
    outer loop
      vertex -14.9875 -2.25 0
      vertex -5 -2.25 3
      vertex -12.3427 -2.25 3
    endloop
  endfacet
  facet normal 0 -1 -7.94729e-008
    outer loop
      vertex -5 -2.25 3
      vertex -14.9875 -2.25 0
      vertex 5 -2.25 3
    endloop
  endfacet
  facet normal -0 -1 -7.94729e-008
    outer loop
      vertex 14.9875 -2.25 0
      vertex 5 -2.25 3
      vertex -14.9875 -2.25 0
    endloop
  endfacet
  facet normal 0 -1 -7.94729e-008
    outer loop
      vertex 5 -2.25 3
      vertex 14.9875 -2.25 0
      vertex 12.3427 -2.25 3
    endloop
  endfacet
  facet normal 0 -1 -4.20389e-008
    outer loop
      vertex -5 -2.25 11.3286
      vertex 5 -2.25 11.3286
      vertex 0 -2.25 17
    endloop
  endfacet
  facet normal 0 -1 -5.72529e-008
    outer loop
      vertex -5 -2.25 3
      vertex 5 -2.25 11.3286
      vertex -5 -2.25 11.3286
    endloop
  endfacet
  facet normal 0 -1 -5.72529e-008
    outer loop
      vertex 5 -2.25 11.3286
      vertex -5 -2.25 3
      vertex 5 -2.25 3
    endloop
  endfacet
  facet normal 0 -1 -1.58946e-007
    outer loop
      vertex 16.6645 -2.25 0
      vertex 16.5432 -2.25 3
      vertex 16.381 -2.25 3
    endloop
  endfacet
  facet normal 0 -1 -1.58946e-007
    outer loop
      vertex 16.5432 -2.25 3
      vertex 16.6645 -2.25 0
      vertex 16.7319 -2.25 0
    endloop
  endfacet
  facet normal -0.27899 0 -0.960294
    outer loop
      vertex 4.22773 -3 16.4659
      vertex 5 -2.25 16.2415
      vertex 5 -3 16.2415
    endloop
  endfacet
  facet normal -0.27899 0 -0.960294
    outer loop
      vertex 5 -2.25 16.2415
      vertex 4.22773 -3 16.4659
      vertex 4.22773 -2.25 16.4659
    endloop
  endfacet
  facet normal 0.218145 0 -0.975916
    outer loop
      vertex -4.22773 -3 16.4659
      vertex -3.18548 -2.25 16.6989
      vertex -3.18548 -3 16.6989
    endloop
  endfacet
  facet normal 0.218145 0 -0.975916
    outer loop
      vertex -3.18548 -2.25 16.6989
      vertex -4.22773 -3 16.4659
      vertex -4.22773 -2.25 16.4659
    endloop
  endfacet
  facet normal -0 -1 -7.94729e-008
    outer loop
      vertex -16.5285 -2.25 0
      vertex -16.2178 -2.25 3
      vertex -16.5968 -2.25 0
    endloop
  endfacet
  facet normal 0 -1 -7.94729e-008
    outer loop
      vertex -16.2178 -2.25 3
      vertex -16.5285 -2.25 0
      vertex -16.0533 -2.25 3
    endloop
  endfacet
  facet normal -0 -1 -1.58946e-007
    outer loop
      vertex -16.5968 -2.25 0
      vertex -16.381 -2.25 3
      vertex -16.6645 -2.25 0
    endloop
  endfacet
  facet normal 1.46124e-006 -1 -2.6407e-007
    outer loop
      vertex -16.381 -2.25 3
      vertex -16.5968 -2.25 0
      vertex -16.2178 -2.25 3
    endloop
  endfacet
  facet normal -0 -1 -7.94729e-008
    outer loop
      vertex -16.3897 -2.25 0
      vertex -15.8872 -2.25 3
      vertex -16.4595 -2.25 0
    endloop
  endfacet
  facet normal 0 -1 -7.94729e-008
    outer loop
      vertex -15.8872 -2.25 3
      vertex -16.3897 -2.25 0
      vertex -15.7191 -2.25 3
    endloop
  endfacet
  facet normal 0 -1 0
    outer loop
      vertex -16.0224 -2.25 0
      vertex -15.0188 -2.25 3
      vertex -16.0989 -2.25 0
    endloop
  endfacet
  facet normal 0 -1 -0
    outer loop
      vertex -15.0188 -2.25 3
      vertex -16.0224 -2.25 0
      vertex -14.8346 -2.25 3
    endloop
  endfacet
  facet normal 0 -1 0
    outer loop
      vertex -15.9439 -2.25 0
      vertex -14.8346 -2.25 3
      vertex -16.0224 -2.25 0
    endloop
  endfacet
  facet normal 0 -1 -0
    outer loop
      vertex -14.8346 -2.25 3
      vertex -15.9439 -2.25 0
      vertex -14.6457 -2.25 3
    endloop
  endfacet
  facet normal -0.999507 0 -0.0314116
    outer loop
      vertex 17 -3 0
      vertex 16.9665 -2.25 1.06744
      vertex 17 -2.25 0
    endloop
  endfacet
  facet normal -0.999507 -0 -0.0314116
    outer loop
      vertex 16.9665 -2.25 1.06744
      vertex 17 -3 0
      vertex 16.9665 -3 1.06744
    endloop
  endfacet
  facet normal -0.995562 0 -0.0941078
    outer loop
      vertex 16.9665 -3 1.06744
      vertex 16.8659 -2.25 2.13066
      vertex 16.9665 -2.25 1.06744
    endloop
  endfacet
  facet normal -0.995562 -0 -0.0941078
    outer loop
      vertex 16.8659 -2.25 2.13066
      vertex 16.9665 -3 1.06744
      vertex 16.8659 -3 2.13066
    endloop
  endfacet
  facet normal -2.36754e-006 -1 -2.23797e-007
    outer loop
      vertex 16.8659 -2.25 0
      vertex 16.9665 -2.25 1.06744
      vertex 16.8659 -2.25 2.13066
    endloop
  endfacet
  facet normal -3.56064e-006 -1 -1.11462e-007
    outer loop
      vertex 16.9665 -2.25 1.06744
      vertex 16.8659 -2.25 0
      vertex 16.9329 -2.25 0
    endloop
  endfacet
  facet normal 0 -1 -7.94729e-008
    outer loop
      vertex 16.4595 -2.25 0
      vertex 16.0533 -2.25 3
      vertex 15.8872 -2.25 3
    endloop
  endfacet
  facet normal 0 -1 -7.94729e-008
    outer loop
      vertex 16.0533 -2.25 3
      vertex 16.4595 -2.25 0
      vertex 16.5285 -2.25 0
    endloop
  endfacet
  facet normal -1.46124e-006 -1 -2.6407e-007
    outer loop
      vertex 16.5968 -2.25 0
      vertex 16.381 -2.25 3
      vertex 16.2178 -2.25 3
    endloop
  endfacet
  facet normal 0 -1 -1.58946e-007
    outer loop
      vertex 16.381 -2.25 3
      vertex 16.5968 -2.25 0
      vertex 16.6645 -2.25 0
    endloop
  endfacet
  facet normal 0 -1 -7.94729e-008
    outer loop
      vertex 16.3897 -2.25 0
      vertex 15.8872 -2.25 3
      vertex 15.7191 -2.25 3
    endloop
  endfacet
  facet normal 0 -1 -7.94729e-008
    outer loop
      vertex 15.8872 -2.25 3
      vertex 16.3897 -2.25 0
      vertex 16.4595 -2.25 0
    endloop
  endfacet
  facet normal 0 -1 0
    outer loop
      vertex 3.18548 -2.25 16.6989
      vertex 5 -2.25 15.3295
      vertex 4.22773 -2.25 16.4659
    endloop
  endfacet
  facet normal -1.59488e-007 -1 -2.11339e-007
    outer loop
      vertex 5 -2.25 15.3295
      vertex 3.18548 -2.25 16.6989
      vertex 5 -2.25 14.2014
    endloop
  endfacet
  facet normal 0 -1 -7.94729e-008
    outer loop
      vertex 15.3179 -2.25 0
      vertex 13.3792 -2.25 3
      vertex 13.1383 -2.25 3
    endloop
  endfacet
  facet normal 0 -1 -7.94729e-008
    outer loop
      vertex 13.3792 -2.25 3
      vertex 15.3179 -2.25 0
      vertex 15.418 -2.25 0
    endloop
  endfacet
  facet normal -0.0314116 0 -0.999507
    outer loop
      vertex 0 -3 17
      vertex 1.06744 -2.25 16.9665
      vertex 1.06744 -3 16.9665
    endloop
  endfacet
  facet normal -0.0314116 0 -0.999507
    outer loop
      vertex 1.06744 -2.25 16.9665
      vertex 0 -3 17
      vertex 0 -2.25 17
    endloop
  endfacet
  facet normal 0.987688 0 -0.156435
    outer loop
      vertex -16.7283 -3 3
      vertex -16.8659 -2.25 2.13066
      vertex -16.7283 -2.25 3
    endloop
  endfacet
  facet normal 0.987688 0 -0.156435
    outer loop
      vertex -16.8659 -2.25 2.13066
      vertex -16.7283 -3 3
      vertex -16.8659 -3 2.13066
    endloop
  endfacet
  facet normal 0.999507 0 -0.0314116
    outer loop
      vertex -16.9665 -3 1.06744
      vertex -17 -2.25 0
      vertex -16.9665 -2.25 1.06744
    endloop
  endfacet
  facet normal 0.999507 0 -0.0314116
    outer loop
      vertex -17 -2.25 0
      vertex -16.9665 -3 1.06744
      vertex -17 -3 0
    endloop
  endfacet
  facet normal 3.55366e-006 -1 -2.70623e-007
    outer loop
      vertex -16.7319 -2.25 0
      vertex -16.7047 -2.25 3
      vertex -16.799 -2.25 0
    endloop
  endfacet
  facet normal 1.47576e-006 -1 -2.51793e-007
    outer loop
      vertex -16.7047 -2.25 3
      vertex -16.7319 -2.25 0
      vertex -16.5432 -2.25 3
    endloop
  endfacet
  facet normal 0.27899 0 -0.960294
    outer loop
      vertex -5 -3 16.2415
      vertex -4.22773 -2.25 16.4659
      vertex -4.22773 -3 16.4659
    endloop
  endfacet
  facet normal 0.27899 0 -0.960294
    outer loop
      vertex -4.22773 -2.25 16.4659
      vertex -5 -3 16.2415
      vertex -5 -2.25 16.2415
    endloop
  endfacet
  facet normal 0 -1 0
    outer loop
      vertex 16.0224 -2.25 0
      vertex 15.0188 -2.25 3
      vertex 14.8346 -2.25 3
    endloop
  endfacet
  facet normal 0 -1 0
    outer loop
      vertex 15.0188 -2.25 3
      vertex 16.0224 -2.25 0
      vertex 16.0989 -2.25 0
    endloop
  endfacet
  facet normal 0 -1 -7.94729e-008
    outer loop
      vertex 15.5138 -2.25 0
      vertex 13.8317 -2.25 3
      vertex 13.6099 -2.25 3
    endloop
  endfacet
  facet normal 0 -1 -7.94729e-008
    outer loop
      vertex 13.8317 -2.25 3
      vertex 15.5138 -2.25 0
      vertex 15.6059 -2.25 0
    endloop
  endfacet
  facet normal -0.156434 0 -0.987688
    outer loop
      vertex 2.13066 -3 16.8659
      vertex 3.18548 -2.25 16.6989
      vertex 3.18548 -3 16.6989
    endloop
  endfacet
  facet normal -0.156434 0 -0.987688
    outer loop
      vertex 3.18548 -2.25 16.6989
      vertex 2.13066 -3 16.8659
      vertex 2.13066 -2.25 16.8659
    endloop
  endfacet
  facet normal 0 -1 0
    outer loop
      vertex 16.7047 -2.25 3
      vertex 16.8659 -2.25 2.13066
      vertex 16.7283 -2.25 3
    endloop
  endfacet
  facet normal -1.0318e-006 -1 -1.91371e-007
    outer loop
      vertex 16.799 -2.25 0
      vertex 16.8659 -2.25 2.13066
      vertex 16.7047 -2.25 3
    endloop
  endfacet
  facet normal 0 -1 -2.23797e-007
    outer loop
      vertex 16.8659 -2.25 2.13066
      vertex 16.799 -2.25 0
      vertex 16.8659 -2.25 0
    endloop
  endfacet
  facet normal -1.47576e-006 -1 -2.51793e-007
    outer loop
      vertex 16.7319 -2.25 0
      vertex 16.7047 -2.25 3
      vertex 16.5432 -2.25 3
    endloop
  endfacet
  facet normal -3.55366e-006 -1 -2.70623e-007
    outer loop
      vertex 16.7047 -2.25 3
      vertex 16.7319 -2.25 0
      vertex 16.799 -2.25 0
    endloop
  endfacet
  facet normal 0 -1 0
    outer loop
      vertex -16.8659 -2.25 2.13066
      vertex -16.7047 -2.25 3
      vertex -16.7283 -2.25 3
    endloop
  endfacet
  facet normal -0 -1 -2.23797e-007
    outer loop
      vertex -16.799 -2.25 0
      vertex -16.8659 -2.25 2.13066
      vertex -16.8659 -2.25 0
    endloop
  endfacet
  facet normal 1.0318e-006 -1 -1.91371e-007
    outer loop
      vertex -16.8659 -2.25 2.13066
      vertex -16.799 -2.25 0
      vertex -16.7047 -2.25 3
    endloop
  endfacet
  facet normal 0.995562 0 -0.0941078
    outer loop
      vertex -16.8659 -3 2.13066
      vertex -16.9665 -2.25 1.06744
      vertex -16.8659 -2.25 2.13066
    endloop
  endfacet
  facet normal 0.995562 0 -0.0941078
    outer loop
      vertex -16.9665 -2.25 1.06744
      vertex -16.8659 -3 2.13066
      vertex -16.9665 -3 1.06744
    endloop
  endfacet
  facet normal -0 -1 -7.94729e-008
    outer loop
      vertex -16.4595 -2.25 0
      vertex -16.0533 -2.25 3
      vertex -16.5285 -2.25 0
    endloop
  endfacet
  facet normal 0 -1 -7.94729e-008
    outer loop
      vertex -16.0533 -2.25 3
      vertex -16.4595 -2.25 0
      vertex -15.8872 -2.25 3
    endloop
  endfacet
  facet normal -0 -1 -7.94729e-008
    outer loop
      vertex -16.3189 -2.25 0
      vertex -15.7191 -2.25 3
      vertex -16.3897 -2.25 0
    endloop
  endfacet
  facet normal 0 -1 -7.94729e-008
    outer loop
      vertex -15.7191 -2.25 3
      vertex -16.3189 -2.25 0
      vertex -15.5486 -2.25 3
    endloop
  endfacet
  facet normal 0.156434 0 -0.987688
    outer loop
      vertex -3.18548 -3 16.6989
      vertex -2.13066 -2.25 16.8659
      vertex -2.13066 -3 16.8659
    endloop
  endfacet
  facet normal 0.156434 0 -0.987688
    outer loop
      vertex -2.13066 -2.25 16.8659
      vertex -3.18548 -3 16.6989
      vertex -3.18548 -2.25 16.6989
    endloop
  endfacet
  facet normal 1.70862e-008 -1 -1.07878e-007
    outer loop
      vertex -5 -2.25 14.2014
      vertex -2.13066 -2.25 16.8659
      vertex -3.18548 -2.25 16.6989
    endloop
  endfacet
  facet normal -8.30919e-008 -1 0
    outer loop
      vertex -2.13066 -2.25 16.8659
      vertex -5 -2.25 14.2014
      vertex -5 -2.25 13.1668
    endloop
  endfacet
  facet normal -0 -1 -7.94729e-008
    outer loop
      vertex -15.2132 -2.25 0
      vertex -13.1383 -2.25 3
      vertex -15.3179 -2.25 0
    endloop
  endfacet
  facet normal 0 -1 -7.94729e-008
    outer loop
      vertex -13.1383 -2.25 3
      vertex -15.2132 -2.25 0
      vertex -12.8862 -2.25 3
    endloop
  endfacet
  facet normal 0 -1 0
    outer loop
      vertex 15.8633 -2.25 0
      vertex 14.6457 -2.25 3
      vertex 14.4516 -2.25 3
    endloop
  endfacet
  facet normal 0 -1 0
    outer loop
      vertex 14.6457 -2.25 3
      vertex 15.8633 -2.25 0
      vertex 15.9439 -2.25 0
    endloop
  endfacet
  facet normal -1.70862e-008 -1 -1.07878e-007
    outer loop
      vertex 2.13066 -2.25 16.8659
      vertex 5 -2.25 14.2014
      vertex 3.18548 -2.25 16.6989
    endloop
  endfacet
  facet normal 8.30919e-008 -1 0
    outer loop
      vertex 5 -2.25 14.2014
      vertex 2.13066 -2.25 16.8659
      vertex 5 -2.25 13.1668
    endloop
  endfacet
  facet normal 0 -1 -7.94729e-008
    outer loop
      vertex 15.2132 -2.25 0
      vertex 13.1383 -2.25 3
      vertex 12.8862 -2.25 3
    endloop
  endfacet
  facet normal 0 -1 -7.94729e-008
    outer loop
      vertex 13.1383 -2.25 3
      vertex 15.2132 -2.25 0
      vertex 15.3179 -2.25 0
    endloop
  endfacet
  facet normal -0.0941078 0 -0.995562
    outer loop
      vertex 1.06744 -3 16.9665
      vertex 2.13066 -2.25 16.8659
      vertex 2.13066 -3 16.8659
    endloop
  endfacet
  facet normal -0.0941078 0 -0.995562
    outer loop
      vertex 2.13066 -2.25 16.8659
      vertex 1.06744 -3 16.9665
      vertex 1.06744 -2.25 16.9665
    endloop
  endfacet
  facet normal -0.218145 0 -0.975916
    outer loop
      vertex 3.18548 -3 16.6989
      vertex 4.22773 -2.25 16.4659
      vertex 4.22773 -3 16.4659
    endloop
  endfacet
  facet normal -0.218145 0 -0.975916
    outer loop
      vertex 4.22773 -2.25 16.4659
      vertex 3.18548 -3 16.6989
      vertex 3.18548 -2.25 16.6989
    endloop
  endfacet
  facet normal 0 -1 0
    outer loop
      vertex 5 -2.25 15.3295
      vertex 5 -2.25 16.2415
      vertex 4.22773 -2.25 16.4659
    endloop
  endfacet
  facet normal 0 -1 -7.94729e-008
    outer loop
      vertex 15.418 -2.25 0
      vertex 13.6099 -2.25 3
      vertex 13.3792 -2.25 3
    endloop
  endfacet
  facet normal 0 -1 -7.94729e-008
    outer loop
      vertex 13.6099 -2.25 3
      vertex 15.418 -2.25 0
      vertex 15.5138 -2.25 0
    endloop
  endfacet
  facet normal -0.987688 0 -0.156435
    outer loop
      vertex 16.8659 -3 2.13066
      vertex 16.7283 -2.25 3
      vertex 16.8659 -2.25 2.13066
    endloop
  endfacet
  facet normal -0.987688 -0 -0.156435
    outer loop
      vertex 16.7283 -2.25 3
      vertex 16.8659 -3 2.13066
      vertex 16.7283 -3 3
    endloop
  endfacet
  facet normal -1.35113e-006 -1 -4.39009e-007
    outer loop
      vertex 16.1737 -2.25 0
      vertex 15.3754 -2.25 3
      vertex 15.1989 -2.25 3
    endloop
  endfacet
  facet normal 0 -1 -7.94729e-008
    outer loop
      vertex 15.3754 -2.25 3
      vertex 16.1737 -2.25 0
      vertex 16.2469 -2.25 0
    endloop
  endfacet
  facet normal 0 -1 -7.94729e-008
    outer loop
      vertex 16.2469 -2.25 0
      vertex 15.5486 -2.25 3
      vertex 15.3754 -2.25 3
    endloop
  endfacet
  facet normal 0 -1 -7.94729e-008
    outer loop
      vertex 15.5486 -2.25 3
      vertex 16.2469 -2.25 0
      vertex 16.3189 -2.25 0
    endloop
  endfacet
  facet normal 3.56064e-006 -1 -1.11462e-007
    outer loop
      vertex -16.8659 -2.25 0
      vertex -16.9665 -2.25 1.06744
      vertex -16.9329 -2.25 0
    endloop
  endfacet
  facet normal 2.36754e-006 -1 -2.23797e-007
    outer loop
      vertex -16.9665 -2.25 1.06744
      vertex -16.8659 -2.25 0
      vertex -16.8659 -2.25 2.13066
    endloop
  endfacet
  facet normal 3.55366e-006 -1 -1.11681e-007
    outer loop
      vertex -16.9329 -2.25 0
      vertex -16.9665 -2.25 1.06744
      vertex -17 -2.25 0
    endloop
  endfacet
  facet normal -0 -1 -1.58946e-007
    outer loop
      vertex -16.6645 -2.25 0
      vertex -16.5432 -2.25 3
      vertex -16.7319 -2.25 0
    endloop
  endfacet
  facet normal 0 -1 -1.58946e-007
    outer loop
      vertex -16.5432 -2.25 3
      vertex -16.6645 -2.25 0
      vertex -16.381 -2.25 3
    endloop
  endfacet
  facet normal 0.0941078 0 -0.995562
    outer loop
      vertex -2.13066 -3 16.8659
      vertex -1.06744 -2.25 16.9665
      vertex -1.06744 -3 16.9665
    endloop
  endfacet
  facet normal 0.0941078 0 -0.995562
    outer loop
      vertex -1.06744 -2.25 16.9665
      vertex -2.13066 -3 16.8659
      vertex -2.13066 -2.25 16.8659
    endloop
  endfacet
  facet normal 6.57461e-009 -1 -6.95525e-008
    outer loop
      vertex -5 -2.25 13.1668
      vertex -1.06744 -2.25 16.9665
      vertex -2.13066 -2.25 16.8659
    endloop
  endfacet
  facet normal -6.06268e-008 -1 0
    outer loop
      vertex -1.06744 -2.25 16.9665
      vertex -5 -2.25 13.1668
      vertex -5 -2.25 12.2128
    endloop
  endfacet
  facet normal -0 -1 -7.94729e-008
    outer loop
      vertex -15.1033 -2.25 0
      vertex -12.8862 -2.25 3
      vertex -15.2132 -2.25 0
    endloop
  endfacet
  facet normal 0 -1 -7.94729e-008
    outer loop
      vertex -12.8862 -2.25 3
      vertex -15.1033 -2.25 0
      vertex -12.6215 -2.25 3
    endloop
  endfacet
  facet normal -0 -1 -7.94729e-008
    outer loop
      vertex -15.5138 -2.25 0
      vertex -13.8317 -2.25 3
      vertex -15.6059 -2.25 0
    endloop
  endfacet
  facet normal 0 -1 -7.94729e-008
    outer loop
      vertex -13.8317 -2.25 3
      vertex -15.5138 -2.25 0
      vertex -13.6099 -2.25 3
    endloop
  endfacet
  facet normal 0 -1 0
    outer loop
      vertex -15.8633 -2.25 0
      vertex -14.6457 -2.25 3
      vertex -15.9439 -2.25 0
    endloop
  endfacet
  facet normal 0 -1 -0
    outer loop
      vertex -14.6457 -2.25 3
      vertex -15.8633 -2.25 0
      vertex -14.4516 -2.25 3
    endloop
  endfacet
  facet normal 0 -1 0
    outer loop
      vertex 15.7803 -2.25 0
      vertex 14.4516 -2.25 3
      vertex 14.2517 -2.25 3
    endloop
  endfacet
  facet normal 0 -1 0
    outer loop
      vertex 14.4516 -2.25 3
      vertex 15.7803 -2.25 0
      vertex 15.8633 -2.25 0
    endloop
  endfacet
  facet normal -6.57461e-009 -1 -6.95525e-008
    outer loop
      vertex 1.06744 -2.25 16.9665
      vertex 5 -2.25 13.1668
      vertex 2.13066 -2.25 16.8659
    endloop
  endfacet
  facet normal 6.06268e-008 -1 0
    outer loop
      vertex 5 -2.25 13.1668
      vertex 1.06744 -2.25 16.9665
      vertex 5 -2.25 12.2128
    endloop
  endfacet
  facet normal 0 -1 -7.94729e-008
    outer loop
      vertex 15.1033 -2.25 0
      vertex 12.8862 -2.25 3
      vertex 12.6215 -2.25 3
    endloop
  endfacet
  facet normal 0 -1 -7.94729e-008
    outer loop
      vertex 12.8862 -2.25 3
      vertex 15.1033 -2.25 0
      vertex 15.2132 -2.25 0
    endloop
  endfacet
  facet normal -1.61829e-009 -1 -5.14936e-008
    outer loop
      vertex 0 -2.25 17
      vertex 5 -2.25 12.2128
      vertex 1.06744 -2.25 16.9665
    endloop
  endfacet
  facet normal 4.76837e-008 -1 0
    outer loop
      vertex 5 -2.25 12.2128
      vertex 0 -2.25 17
      vertex 5 -2.25 11.3286
    endloop
  endfacet
  facet normal 0 -1 -7.94729e-008
    outer loop
      vertex 14.9875 -2.25 0
      vertex 12.6215 -2.25 3
      vertex 12.3427 -2.25 3
    endloop
  endfacet
  facet normal 0 -1 -7.94729e-008
    outer loop
      vertex 12.6215 -2.25 3
      vertex 14.9875 -2.25 0
      vertex 15.1033 -2.25 0
    endloop
  endfacet
  facet normal 0 -1 0
    outer loop
      vertex 16.0989 -2.25 0
      vertex 15.1989 -2.25 3
      vertex 15.0188 -2.25 3
    endloop
  endfacet
  facet normal 0 -1 0
    outer loop
      vertex 15.1989 -2.25 3
      vertex 16.0989 -2.25 0
      vertex 16.1737 -2.25 0
    endloop
  endfacet
  facet normal -0 -1 -7.94729e-008
    outer loop
      vertex -16.1737 -2.25 0
      vertex -15.3754 -2.25 3
      vertex -16.2469 -2.25 0
    endloop
  endfacet
  facet normal 1.35113e-006 -1 -4.39009e-007
    outer loop
      vertex -15.3754 -2.25 3
      vertex -16.1737 -2.25 0
      vertex -15.1989 -2.25 3
    endloop
  endfacet
  facet normal -0 -1 -7.94729e-008
    outer loop
      vertex -16.2469 -2.25 0
      vertex -15.5486 -2.25 3
      vertex -16.3189 -2.25 0
    endloop
  endfacet
  facet normal 0 -1 -7.94729e-008
    outer loop
      vertex -15.5486 -2.25 3
      vertex -16.2469 -2.25 0
      vertex -15.3754 -2.25 3
    endloop
  endfacet
  facet normal 0 -1 0
    outer loop
      vertex -5 -2.25 15.3295
      vertex -3.18548 -2.25 16.6989
      vertex -4.22773 -2.25 16.4659
    endloop
  endfacet
  facet normal 1.59488e-007 -1 -2.11339e-007
    outer loop
      vertex -3.18548 -2.25 16.6989
      vertex -5 -2.25 15.3295
      vertex -5 -2.25 14.2014
    endloop
  endfacet
  facet normal -0 -1 -7.94729e-008
    outer loop
      vertex -15.3179 -2.25 0
      vertex -13.3792 -2.25 3
      vertex -15.418 -2.25 0
    endloop
  endfacet
  facet normal 0 -1 -7.94729e-008
    outer loop
      vertex -13.3792 -2.25 3
      vertex -15.3179 -2.25 0
      vertex -13.1383 -2.25 3
    endloop
  endfacet
  facet normal 0 -1 0
    outer loop
      vertex -5 -2.25 15.3295
      vertex -4.22773 -2.25 16.4659
      vertex -5 -2.25 16.2415
    endloop
  endfacet
  facet normal -0 -1 -7.94729e-008
    outer loop
      vertex -15.418 -2.25 0
      vertex -13.6099 -2.25 3
      vertex -15.5138 -2.25 0
    endloop
  endfacet
  facet normal 0 -1 -7.94729e-008
    outer loop
      vertex -13.6099 -2.25 3
      vertex -15.418 -2.25 0
      vertex -13.3792 -2.25 3
    endloop
  endfacet
  facet normal 0 -1 0
    outer loop
      vertex -15.7803 -2.25 0
      vertex -14.4516 -2.25 3
      vertex -15.8633 -2.25 0
    endloop
  endfacet
  facet normal 0 -1 -0
    outer loop
      vertex -14.4516 -2.25 3
      vertex -15.7803 -2.25 0
      vertex -14.2517 -2.25 3
    endloop
  endfacet
  facet normal 0 -1 0
    outer loop
      vertex 15.9439 -2.25 0
      vertex 14.8346 -2.25 3
      vertex 14.6457 -2.25 3
    endloop
  endfacet
  facet normal 0 -1 0
    outer loop
      vertex 14.8346 -2.25 3
      vertex 15.9439 -2.25 0
      vertex 16.0224 -2.25 0
    endloop
  endfacet
  facet normal 0 -1 -7.94729e-008
    outer loop
      vertex 15.6946 -2.25 0
      vertex 14.2517 -2.25 3
      vertex 14.0453 -2.25 3
    endloop
  endfacet
  facet normal -2.78155e-006 -1 -1.41727e-006
    outer loop
      vertex 14.2517 -2.25 3
      vertex 15.6946 -2.25 0
      vertex 15.7803 -2.25 0
    endloop
  endfacet
  facet normal 0 -1 -7.94729e-008
    outer loop
      vertex 15.6059 -2.25 0
      vertex 14.0453 -2.25 3
      vertex 13.8317 -2.25 3
    endloop
  endfacet
  facet normal 0 -1 -7.94729e-008
    outer loop
      vertex 14.0453 -2.25 3
      vertex 15.6059 -2.25 0
      vertex 15.6946 -2.25 0
    endloop
  endfacet
  facet normal -0 -1 -7.94729e-008
    outer loop
      vertex -15.6059 -2.25 0
      vertex -14.0453 -2.25 3
      vertex -15.6946 -2.25 0
    endloop
  endfacet
  facet normal 0 -1 -7.94729e-008
    outer loop
      vertex -14.0453 -2.25 3
      vertex -15.6059 -2.25 0
      vertex -13.8317 -2.25 3
    endloop
  endfacet
  facet normal 2.78155e-006 -1 -1.41727e-006
    outer loop
      vertex -15.6946 -2.25 0
      vertex -14.2517 -2.25 3
      vertex -15.7803 -2.25 0
    endloop
  endfacet
  facet normal 0 -1 -7.94729e-008
    outer loop
      vertex -14.2517 -2.25 3
      vertex -15.6946 -2.25 0
      vertex -14.0453 -2.25 3
    endloop
  endfacet
endsolid OpenSCAD_Model
